# xmcd
#
# Track frame offsets:
#	150
#	12090
#	29122
#	49360
#	53290
#	64869
#	78322
#	92855
#	113657
#	129064
#	144626
#	152410
#	164506
#	176924
#
# Disc length: 2654 seconds
#
# Revision: 1
# Processed by: cddbd v1.5.2PL0 Copyright (c) Steve Scherf et al.
# Submitted via: audiograbber 1.83.01
#
DISCID=b30a5c0e
DTITLE=Doug Ashdown - DOUG ASHDOWN - The Age Of Mouse
DYEAR=1970
DGENRE=Country
TTITLE0=Who Is It That Shall Come One Day
TTITLE1=I've Come To Save Your World
TTITLE2=The Day They Freed The Noise
TTITLE3=California Beachhead
TTITLE4=And The Lion Roared
TTITLE5=Galilee
TTITLE6=Who Is It That Shall Come One Day
TTITLE7=The Rage
TTITLE8=Susan Of The Straw
TTITLE9=I Remembered Alice
TTITLE10=Mother Love
TTITLE11=Holly
TTITLE12=Have You Had A Good Day At The Bank
TTITLE13=The Saddest Song Of All
EXTD=
EXTT0=
EXTT1=
EXTT2=
EXTT3=
EXTT4=
EXTT5=
EXTT6=
EXTT7=
EXTT8=
EXTT9=
EXTT10=
EXTT11=
EXTT12=
EXTT13=
PLAYORDER=
